<?xml version="1.0" encoding="UTF-8"?>
<!DOCTYPE svg  PUBLIC '-//W3C//DTD SVG 1.1//EN'  'http://www.w3.org/Graphics/SVG/1.1/DTD/svg11.dtd'>
<svg version="1.1" viewBox="0 0 640 640" xmlns="http://www.w3.org/2000/svg" xmlns:xlink="http://www.w3.org/1999/xlink">
<defs>
<path id="a" d="m313.25 276.99c-14.88 0-26.94-12.06-26.94-26.94v-46.32c0-14.88 12.06-26.94 26.94-26.94s26.94 12.06 26.94 26.94v46.32c-8.04 17.96-17.02 26.94-26.94 26.94z"/>
<path id="d" d="m354.42 195.25v64.23c0 15.13-9.91 28.14-24.16 34.02v34.53h138.96v-115.97c0-65.68-55.02-118.93-122.89-118.93h-16.07v68.1c16.11 12.59 24.16 23.93 24.16 34.02z"/>
<clipPath id="e">
<use xlink:href="#d"/>
</clipPath>
<path id="c" d="m157.28 427.94c0 65.68 55.02 118.93 122.88 118.93h66.17c67.87 0 122.89-53.25 122.89-118.93v-89.98h-311.94v89.98z"/>
<path id="b" d="m296.23 293.5c-14.24-5.88-24.15-18.89-24.15-34.02v-64.23c0-15.13 9.91-28.14 24.15-34.02v-68.1h-16.07c-67.86 0-122.88 53.25-122.88 118.93v115.97h138.95v-34.53z"/>
</defs>
<use fill="#020202" xlink:href="#a"/>
<use fill-opacity="0" stroke="#000000" stroke-opacity="0" xlink:href="#a"/>
<g clip-path="url(#e)">
<use fill-opacity="0" stroke="#000000" stroke-width="26" xlink:href="#d"/>
</g>
<use fill="#020202" xlink:href="#c"/>
<use fill-opacity="0" stroke="#000000" stroke-opacity="0" xlink:href="#c"/>
<use fill="#020202" xlink:href="#b"/>
<use fill-opacity="0" stroke="#000000" stroke-opacity="0" xlink:href="#b"/>
</svg>
